<?xml version="1.0" encoding="UTF-8"?>
<svg version="1.1" xmlns="http://www.w3.org/2000/svg" width="1024" height="1024">
<path d="M0 0 C337.92 0 675.84 0 1024 0 C1024 337.92 1024 675.84 1024 1024 C686.08 1024 348.16 1024 0 1024 C0 686.08 0 348.16 0 0 Z " fill="#FDFEFE" transform="translate(0,0)"/>
<path d="M0 0 C3.5 1.6875 3.5 1.6875 6 4 C6.875 6.75 6.875 6.75 7 9 C7.66386719 8.9071875 8.32773437 8.814375 9.01171875 8.71875 C11.84596598 8.48704512 14.20695803 8.43622728 17 9 C18.78039972 10.82479871 19.71078932 12.60837594 20.83984375 14.88671875 C22.61744136 18.12469959 25.06369021 19.81483923 28 22 C23.33983599 25.90446174 20.26048546 27.35742263 14.0625 27.2890625 C10.69753253 26.81745721 8.58629573 25.10512443 6 23 C5.44828125 22.58234375 4.8965625 22.1646875 4.328125 21.734375 C1.91344283 18.58108417 3.0176183 14.69793038 3.28515625 10.91015625 C3.25034276 7.89238223 3.25034276 7.89238223 1.1796875 5.65234375 C-0.94636092 3.77648027 -0.94636092 3.77648027 -3.9375 3.5 C-7.81118865 4.13243896 -9.41830549 5.03864454 -12 8 C-12.62906197 11.91416338 -12.67937479 13.99452532 -10.4375 17.3125 C-7.99682926 19.22143867 -7.99682926 19.22143867 -4.5625 19.8125 C-0.81409329 21.0619689 -0.43818149 21.35257822 1.5625 24.4375 C3.94363577 28.1007858 5.68740823 29.66701709 10 31 C17.30756057 31.82454844 23.98070829 31.61479031 30 27 C30.99 25.515 30.99 25.515 32 24 C34.5390625 23.6640625 34.5390625 23.6640625 37.625 23.625 C43.54918226 23.24187923 47.71371653 22.24668732 52 18 C54.00464489 15.07390464 55.46235923 12.21943537 57 9 C63.27 9 69.54 9 76 9 C76 12.96 76 16.92 76 21 C74.865625 21.144375 73.73125 21.28875 72.5625 21.4375 C69.19222799 21.61171478 69.19222799 21.61171478 68 23 C67.7499227 25.45809998 67.7499227 25.45809998 68 28 C69.82203581 30.22966747 69.82203581 30.22966747 72.4375 30.3125 C74.95604299 30.1937889 74.95604299 30.1937889 76.6171875 28.9609375 C78.71600598 25.98464689 78.57237389 22.83535902 78.6875 19.3125 C78.72166016 18.61060547 78.75582031 17.90871094 78.79101562 17.18554688 C78.87329947 15.45758613 78.9383324 13.72881928 79 12 C83.75 12.75 83.75 12.75 86 15 C86.125 17.625 86.125 17.625 86 20 C86.66 20 87.32 20 88 20 C88 17.69 88 15.38 88 13 C92.88049925 16.9419417 97.0580583 21.11950075 101 26 C97.46622929 33.38943567 92.22349549 39.95492055 85 44 C76.45650792 46.45209698 67.261723 45.63229668 58.4765625 45.3671875 C55.91829884 45.3410346 53.35996444 45.32112558 50.80160522 45.30715942 C44.78995108 45.25943184 38.78265272 45.14949137 32.772735 45.00826657 C25.92178885 44.85083411 19.07065264 44.77457589 12.21834302 44.70453048 C-1.8564393 44.55886788 -15.92801919 44.31322603 -30 44 C-29.99777939 44.66985428 -29.99555878 45.33970856 -29.99327087 46.02986145 C-29.97118273 52.9887336 -29.95607858 59.94759582 -29.94506836 66.90649414 C-29.94003319 69.50513107 -29.9332047 72.10376515 -29.92456055 74.70239258 C-29.91245938 78.43311259 -29.90676359 82.16379522 -29.90234375 85.89453125 C-29.89718246 87.06023148 -29.89202118 88.2259317 -29.88670349 89.42695618 C-29.88662796 90.50785019 -29.88655243 91.5887442 -29.88647461 92.70239258 C-29.884254 93.65503494 -29.88203339 94.60767731 -29.87974548 95.58918762 C-30 98 -30 98 -31 101 C-12.30726135 94.11320155 3.28283089 84.40589877 14 67 C15.98 62.71 17.96 58.42 20 54 C31.55 54 43.1 54 55 54 C54.19780636 58.81316184 53.49445852 61.55922841 51.48046875 65.7890625 C50.95976807 66.88428223 50.43906738 67.97950195 49.90258789 69.10791016 C49.33660889 70.2685498 48.77062988 71.42918945 48.1875 72.625 C47.89422821 73.22801941 47.60095642 73.83103882 47.29879761 74.45233154 C32.87258962 104.02081425 13.67285071 131.68182763 -6 158 C-6.48017578 158.64533691 -6.96035156 159.29067383 -7.45507812 159.95556641 C-9.90555321 163.24706672 -12.36696372 166.52998874 -14.83984375 169.8046875 C-17.11662937 172.8206517 -19.37660553 175.84852057 -21.62890625 178.8828125 C-43.28976363 208.01803379 -43.28976363 208.01803379 -49 213 C-51.94820611 212.88804281 -53.49970195 212.41252646 -55.78125 210.53125 C-61.83945063 203.37155835 -67.50242012 195.92200929 -73.15234375 188.43896484 C-75.07105581 185.90620408 -77.00258792 183.38368409 -78.9375 180.86328125 C-90.93759905 165.2189759 -102.56808394 149.34753117 -113.62744141 133.02294922 C-114.54838108 131.66561977 -115.47258076 130.31049692 -116.39990234 128.95751953 C-157 69.70670852 -157 69.70670852 -157 54 C-145.45 54 -133.9 54 -122 54 C-120.576875 56.8875 -119.15375 59.775 -117.6875 62.75 C-107.97727473 81.55794955 -93.24557738 93.21767585 -73.3125 100.3125 C-72.549375 100.539375 -71.78625 100.76625 -71 101 C-71.33 100.01 -71.66 99.02 -72 98 C-72.08799471 96.23591872 -72.11764257 94.46866234 -72.11352539 92.70239258 C-72.11341209 91.08105156 -72.11341209 91.08105156 -72.11329651 89.42695618 C-72.10813522 88.26125595 -72.10297394 87.09555573 -72.09765625 85.89453125 C-72.0962413 84.70018967 -72.09482635 83.50584808 -72.09336853 82.27531433 C-72.0877635 78.45435092 -72.07521011 74.63344575 -72.0625 70.8125 C-72.05748565 68.22461022 -72.05292263 65.63671952 -72.04882812 63.04882812 C-72.03779243 56.69919882 -72.02104936 50.34960357 -72 44 C-73.25486206 44.03552979 -74.50972412 44.07105957 -75.8026123 44.10766602 C-87.68742517 44.43344643 -99.57132132 44.67252559 -111.45960236 44.82899475 C-117.57051591 44.9121513 -123.67779785 45.02471815 -129.78662109 45.20703125 C-135.69384295 45.38220373 -141.59759701 45.47680883 -147.50721741 45.51803589 C-149.74974647 45.54737131 -151.9921069 45.60466311 -154.23313904 45.69168091 C-172.67858872 46.37874903 -172.67858872 46.37874903 -180.05151367 40.33154297 C-184.0882458 36.53587665 -187.67054901 32.42522352 -191 28 C-189.35822911 24.50225449 -187.48974573 22.30950431 -184.6875 19.625 C-182.0901117 17.12903773 -179.88588685 14.83923695 -177.7936554 11.89169312 C-175.66113215 9.3316954 -175.16010231 9.03504047 -171.70329285 8.2784729 C-170.45308853 8.29179657 -169.20288422 8.30512024 -167.91479492 8.31884766 C-167.22156128 8.3179715 -166.52832764 8.31709534 -165.81408691 8.31619263 C-163.53504581 8.320355 -161.25899186 8.36693205 -158.98046875 8.4140625 C-157.39579374 8.42525972 -155.8110979 8.43379743 -154.22639465 8.43978882 C-150.06493305 8.46264655 -145.90473742 8.52154109 -141.74377441 8.5880127 C-137.49407069 8.64950261 -133.24416143 8.676818 -128.99414062 8.70703125 C-120.66218086 8.77128937 -112.33124811 8.87362931 -104 9 C-103.81824219 9.55429687 -103.63648438 10.10859375 -103.44921875 10.6796875 C-103.19785156 11.40414063 -102.94648438 12.12859375 -102.6875 12.875 C-102.44386719 13.59429687 -102.20023437 14.31359375 -101.94921875 15.0546875 C-101.03664453 17.33994905 -101.03664453 17.33994905 -98 19 C-95.85209071 19.31600189 -95.85209071 19.31600189 -93.5625 19.25 C-92.80066406 19.25515625 -92.03882813 19.2603125 -91.25390625 19.265625 C-88.51249794 18.94254742 -87.20018236 18.71677474 -85 17 C-84.01 14.36 -83.02 11.72 -82 9 C-60.22 9 -38.44 9 -16 9 C-15.67 7.68 -15.34 6.36 -15 5 C-10.47251705 0.01976876 -6.66986323 -1.28633077 0 0 Z " fill="#3595C2" transform="translate(364,447)"/>
<path d="M0 0 C1.01980453 0.00031723 1.01980453 0.00031723 2.06021118 0.00064087 C29.13302593 0.08446501 53.87423569 8.88426824 74 27.375 C74.4842041 27.81682617 74.9684082 28.25865234 75.46728516 28.71386719 C90.2294234 42.33389457 103.29597583 60.23436856 107 80.375 C107 81.035 107 81.695 107 82.375 C95.45 82.375 83.9 82.375 72 82.375 C70.700625 79.961875 69.40125 77.54875 68.0625 75.0625 C56.81612598 54.89101665 41.27244484 42.72887726 19 36.375 C-0.32427458 31.29374389 -19.52963202 34.57014488 -36.86669922 44.22729492 C-52.49419079 53.39109296 -62.0125986 66.40019721 -70 82.375 C-81.55 82.375 -93.1 82.375 -105 82.375 C-98.87376611 54.80694748 -81.39301984 31.88472196 -57.84130859 16.53613281 C-39.77134069 5.1411756 -21.42923861 -0.02764723 0 0 Z " fill="#3AACCC" transform="translate(312,363.625)"/>
<path d="M0 0 C6.93 0 13.86 0 21 0 C21.33 16.5 21.66 33 22 50 C24.31 47.69 26.62 45.38 29 43 C30.90853059 41.29543451 32.85334356 39.66526991 34.83203125 38.04296875 C37.14145614 35.99688673 37.14145614 35.99688673 39.07421875 33.11328125 C42.61230244 28.54593686 45.16223105 25.47327575 50.93945312 24.50976562 C58.30761912 24.03816839 65.64879015 24.39480541 73 25 C68.76928207 29.99935218 64.41770623 34.84870213 59.9375 39.625 C59.33873047 40.26695312 58.73996094 40.90890625 58.12304688 41.5703125 C57.53458984 42.199375 56.94613281 42.8284375 56.33984375 43.4765625 C55.7763623 44.08145508 55.21288086 44.68634766 54.63232422 45.30957031 C53.14327292 46.85162703 51.59331695 48.27459742 50.00390625 49.7109375 C49.34261719 50.46632813 48.68132813 51.22171875 48 52 C48.35924046 55.03533266 49.49252393 56.9747648 51.3359375 59.36328125 C51.81812744 59.99588867 52.30031738 60.62849609 52.79711914 61.28027344 C53.57817017 62.28622559 53.57817017 62.28622559 54.375 63.3125 C55.46562585 64.74028834 56.55545014 66.16868927 57.64453125 67.59765625 C58.20092285 68.32484863 58.75731445 69.05204102 59.33056641 69.80126953 C61.95108428 73.25262723 64.50831399 76.74941628 67.0625 80.25 C70.38124281 84.8142765 70.38124281 84.8142765 73.80859375 89.296875 C75 91 75 91 75 93 C54.22395643 96.02219244 54.22395643 96.02219244 47.50634766 91.21582031 C43.27136908 86.72900091 40.17253465 81.58910518 37.23974609 76.18603516 C35.75220209 73.56305978 33.90465267 71.32991953 32 69 C32 68.34 32 67.68 32 67 C30.70756532 68.1241176 29.41607925 69.24932592 28.125 70.375 C27.40570312 71.00148438 26.68640625 71.62796875 25.9453125 72.2734375 C22.40949481 75.26291861 22.40949481 75.26291861 21.5859375 79.9140625 C21.50436714 81.48383047 21.43642994 83.05431494 21.375 84.625 C21.25125 87.38875 21.1275 90.1525 21 93 C14.07 93 7.14 93 0 93 C0 62.31 0 31.62 0 0 Z " fill="#3F4649" transform="translate(693,516)"/>
<path d="M0 0 C6.93 0 13.86 0 21 0 C21 16.5 21 33 21 50 C27.57605059 44.34609001 27.57605059 44.34609001 33.05859375 38.16015625 C45.1694913 23.77647326 45.1694913 23.77647326 54.796875 22.765625 C60.91780314 22.613303 66.94921248 23.08478597 73 24 C72.60312988 24.46253174 72.20625977 24.92506348 71.79736328 25.40161133 C68.54000986 29.19728881 68.54000986 29.19728881 65.3046875 33.01171875 C62.61303809 36.16668486 59.85218816 39.17221471 56.8515625 42.03515625 C56.30000488 42.5660083 55.74844727 43.09686035 55.18017578 43.64379883 C54.07206345 44.7031233 52.95336239 45.75149582 51.82373047 46.7878418 C50.08076162 48.40283552 50.08076162 48.40283552 48 51 C48.31846114 54.28561743 49.79000164 56.38666885 51.73828125 58.984375 C52.5897876 60.12918335 52.5897876 60.12918335 53.45849609 61.29711914 C54.07031738 62.10656982 54.68213867 62.91602051 55.3125 63.75 C55.93463379 64.5845874 56.55676758 65.4191748 57.19775391 66.27905273 C60.31003541 70.44811933 63.45004144 74.5958561 66.59765625 78.73828125 C67.42753052 79.83414551 67.42753052 79.83414551 68.27416992 80.95214844 C69.32544198 82.33802546 70.38145778 83.72031933 71.44262695 85.09863281 C75 89.77839211 75 89.77839211 75 92 C53.68351734 93.88620039 53.68351734 93.88620039 48.07763672 91.015625 C44.71351487 88.02836778 42.96823489 83.96324848 41 80 C39.40387491 77.67694615 37.67608534 75.4675012 35.9375 73.25 C34.625 71.5 33.3125 69.75 32 68 C28.1789732 69.61658826 24.58060977 71.71238764 22 75 C21.15349514 77.95123032 21.11622765 80.75650689 21.125 83.8125 C21.08375 86.514375 21.0425 89.21625 21 92 C14.07 92 7.14 92 0 92 C0 61.64 0 31.28 0 0 Z " fill="#3F4749" transform="translate(610,517)"/>
<path d="M0 0 C7.80989543 6.43724714 12.18642487 12.4384575 14.8125 22.3125 C14.8125 26.9325 14.8125 31.5525 14.8125 36.3125 C-1.6875 36.3125 -18.1875 36.3125 -35.1875 36.3125 C-31.96396708 42.834904 -31.96396708 42.834904 -26.1875 46.3125 C-23.40471326 46.73063894 -21.13886832 46.93290962 -18.375 46.875 C-17.67375 46.86984375 -16.9725 46.8646875 -16.25 46.859375 C-10.21730018 46.64750569 -5.90883637 44.98465051 -1.1875 41.3125 C-0.48625 42.034375 0.215 42.75625 0.9375 43.5 C2.89565274 45.48059575 4.93141464 47.22327296 7.125 48.9375 C8.011875 49.72125 8.89875 50.505 9.8125 51.3125 C9.8125 54.3125 9.8125 54.3125 8.44921875 55.77734375 C-3.33167037 64.67793533 -15.78528788 65.92438394 -30.1875 64.3125 C-37.99344135 62.47101488 -45.09762484 58.60399379 -50.1875 52.3125 C-56.58710242 41.51579658 -58.51147653 31.72652942 -57.1875 19.3125 C-56.06425191 15.49532079 -54.49599173 12.53543582 -52.1875 9.3125 C-51.445 8.24 -50.7025 7.1675 -49.9375 6.0625 C-36.97706339 -6.89793661 -15.63312944 -10.97009274 0 0 Z " fill="#42494C" transform="translate(584.1875,545.6875)"/>
<path d="M0 0 C7.12040981 7.63770454 8.3006032 14.69672195 8.1953125 24.8671875 C8.1924826 25.90191193 8.18965271 26.93663635 8.18673706 28.00271606 C8.17558048 31.29359714 8.15048397 34.58420178 8.125 37.875 C8.11496437 40.11197522 8.10583953 42.34895473 8.09765625 44.5859375 C8.0756559 50.05739748 8.041157 55.52865194 8 61 C1.4 61 -5.2 61 -12 61 C-12 58.69 -12 56.38 -12 54 C-12.66 54 -13.32 54 -14 54 C-14.2784375 54.86625 -14.2784375 54.86625 -14.5625 55.75 C-17.03950303 59.62704822 -21.04608221 61.51786444 -25.40625 62.59375 C-35.43964979 64.16524635 -43.22998509 62.51218299 -51.875 57.25 C-56.26907436 52.59745068 -58.2389357 47.97296306 -58.625 41.5625 C-58.37237677 35.49954247 -56.2452082 31.29883188 -52 27 C-46.57740732 23.31345394 -41.32668029 21.87170573 -34.80078125 21.90234375 C-33.59228516 21.90556641 -32.38378906 21.90878906 -31.13867188 21.91210938 C-29.87603516 21.92048828 -28.61339844 21.92886719 -27.3125 21.9375 C-25.40114258 21.94426758 -25.40114258 21.94426758 -23.45117188 21.95117188 C-20.30073436 21.96297127 -17.15039051 21.97943403 -14 22 C-14.43598709 20.53975348 -14.8851342 19.08343156 -15.33984375 17.62890625 C-15.58855225 16.81752197 -15.83726074 16.0061377 -16.09350586 15.17016602 C-16.90595165 12.73989724 -16.90595165 12.73989724 -19.5625 10.9375 C-27.71149568 8.71504663 -35.22271909 9.88908764 -43 13 C-43.99 13.66 -44.98 14.32 -46 15 C-46.99 15 -47.98 15 -49 15 C-50.00732399 13.06629769 -51.00563288 11.12789694 -52 9.1875 C-52.556875 8.10855469 -53.11375 7.02960937 -53.6875 5.91796875 C-55 3 -55 3 -55 0 C-38.42312955 -9.34653334 -15.61546378 -13.32597849 0 0 Z " fill="#41474A" transform="translate(829,548)"/>
<path d="M0 0 C7.26 0 14.52 0 22 0 C22 5.28 22 10.56 22 16 C27.61 16 33.22 16 39 16 C39 21.61 39 27.22 39 33 C33.39 33 27.78 33 22 33 C22.05110523 37.20085009 22.11408736 41.39802469 22.20751953 45.59765625 C22.23569611 47.02526937 22.25692727 48.45303753 22.27099609 49.88085938 C22.29247392 51.93700332 22.33913974 53.99129002 22.390625 56.046875 C22.41157227 57.28276367 22.43251953 58.51865234 22.45410156 59.79199219 C23.09217766 63.54168807 23.97170406 64.76289289 27 67 C30.87175561 67.41188889 34.21911616 66.78688445 38 66 C38.65134925 67.56020867 39.29582964 69.12328579 39.9375 70.6875 C40.47697266 71.99267578 40.47697266 71.99267578 41.02734375 73.32421875 C41.9570312 75.88179265 42.54162625 78.3221323 43 81 C32.9087841 85.29739993 24.84214223 86.52266182 14.32421875 82.97265625 C7.61758702 80.16601541 4.04787859 76.56466158 1 70 C-0.10632401 65.81828575 -0.11483827 61.82440532 -0.09765625 57.51171875 C-0.0962413 56.80852005 -0.09482635 56.10532135 -0.09336853 55.3808136 C-0.08780109 53.14966456 -0.07525475 50.91861836 -0.0625 48.6875 C-0.05748079 47.16862125 -0.05291862 45.64974091 -0.04882812 44.13085938 C-0.03784236 40.42053988 -0.02060034 36.71027999 0 33 C-3.3 33 -6.6 33 -10 33 C-10 27.72 -10 22.44 -10 17 C-6.7 17 -3.4 17 0 17 C0 11.39 0 5.78 0 0 Z " fill="#434B4E" transform="translate(424,526)"/>
<path d="M0 0 C0 5.94 0 11.88 0 18 C-2.18625 18.226875 -4.3725 18.45375 -6.625 18.6875 C-12.73310897 19.55744279 -15.98318003 20.31371004 -20 25 C-22.73246137 28.93771262 -22.35003997 33.30812218 -22.4140625 37.921875 C-22.43342865 38.78186096 -22.4527948 39.64184692 -22.4727478 40.52789307 C-22.53241814 43.26849521 -22.5788786 46.00913964 -22.625 48.75 C-22.66319134 50.61069517 -22.70224375 52.47137288 -22.7421875 54.33203125 C-22.83972679 58.8879288 -22.9193941 63.4436455 -23 68 C-29.93 68 -36.86 68 -44 68 C-44 45.89 -44 23.78 -44 1 C-37.4 1 -30.8 1 -24 1 C-23.67 3.31 -23.34 5.62 -23 8 C-22.29875 7.236875 -21.5975 6.47375 -20.875 5.6875 C-14.1837084 -0.56740301 -8.84596547 -0.29486552 0 0 Z " fill="#3F4649" transform="translate(521,541)"/>
<path d="M0 0 C0.66 0 1.32 0 2 0 C3.87924376 4.03046566 5.72382564 8.07588521 7.5625 12.125 C8.36204102 13.83816406 8.36204102 13.83816406 9.17773438 15.5859375 C9.67724609 16.69453125 10.17675781 17.803125 10.69140625 18.9453125 C11.15748291 19.96125488 11.62355957 20.97719727 12.10375977 22.02392578 C14.37981854 29.58185453 9.68594449 37.77372117 7.0625 44.8125 C6.60188956 46.07735603 6.14160008 47.34232898 5.68164062 48.60742188 C5.24142578 49.79529297 4.80121094 50.98316406 4.34765625 52.20703125 C3.94554932 53.2947583 3.54344238 54.38248535 3.12915039 55.50317383 C2 58 2 58 0 59 C-1.44133991 55.3077165 -2.86468933 51.60902515 -4.27246094 47.90380859 C-4.98754527 46.03259126 -5.71631451 44.16662204 -6.4453125 42.30078125 C-11.58393674 28.72013148 -11.58393674 28.72013148 -8.828125 20.5078125 C-8.04695313 18.83332031 -8.04695313 18.83332031 -7.25 17.125 C-6.70601563 15.92875 -6.16203125 14.7325 -5.6015625 13.5 C-5.07304687 12.345 -4.54453125 11.19 -4 10 C-3.19451521 8.0473096 -2.40081952 6.08966527 -1.625 4.125 C-1.30789063 3.32320312 -0.99078125 2.52140625 -0.6640625 1.6953125 C-0.44492187 1.13585937 -0.22578125 0.57640625 0 0 Z " fill="#F3F8F9" transform="translate(312,515)"/>
<path d="M0 0 C4.88332368 0.06988656 7.47769113 1.71399898 11.125 4.875 C12.92771141 8.68072409 12.35121322 12.25626671 11.25 16.25 C8.97909493 19.18020009 7.00100349 21.00919402 3.26171875 21.5234375 C-1.23027315 21.71972622 -3.09969305 21.76482633 -6.75 18.875 C-9.5297512 15.22657655 -10.13864574 12.93921958 -10.11328125 8.2890625 C-9.50965397 4.900961 -7.3344052 3.33013101 -4.75 1.25 C-3.75 0.25 -3.75 0.25 0 0 Z " fill="#FAD25A" transform="translate(269.75,445.75)"/>
<path d="M0 0 C4.17582188 -0.33406575 6.58871916 -0.20564042 10.375 1.6875 C13 4 13 4 13.875 6.75 C13.936875 7.86375 13.936875 7.86375 14 9 C14.66386719 8.9071875 15.32773437 8.814375 16.01171875 8.71875 C18.84596598 8.48704512 21.20695803 8.43622728 24 9 C25.78039972 10.82479871 26.71078932 12.60837594 27.83984375 14.88671875 C29.61744136 18.12469959 32.06369021 19.81483923 35 22 C30.33983599 25.90446174 27.26048546 27.35742263 21.0625 27.2890625 C17.69753253 26.81745721 15.58629573 25.10512443 13 23 C12.44828125 22.58234375 11.8965625 22.1646875 11.328125 21.734375 C8.91344283 18.58108417 10.0176183 14.69793038 10.28515625 10.91015625 C10.25288739 7.89914479 10.25288739 7.89914479 8.19921875 5.69921875 C5.59374886 3.68611146 3.15913234 2.86158155 0 2 C0 1.34 0 0.68 0 0 Z " fill="#398DBC" transform="translate(357,447)"/>
<path d="M0 0 C3.99092052 1.96045218 6.77170604 4.12980523 9 8 C9.33 9.65 9.66 11.3 10 13 C-0.23 13 -10.46 13 -21 13 C-19.92535361 6.55212164 -19.27237277 5.22550021 -14.51953125 1.36328125 C-9.82880303 -1.1748027 -5.14654383 -0.9192842 0 0 Z " fill="#F6F7F6" transform="translate(569,557)"/>
<path d="M0 0 C0.78375 0.02255859 1.5675 0.04511719 2.375 0.06835938 C4.2925026 0.12681982 6.2090106 0.21648717 8.125 0.3125 C8.3359375 7.953125 8.3359375 7.953125 6.4375 11.1875 C2.10508887 15.16863455 -1.97668873 15.77827292 -7.71484375 15.625 C-11.11489757 15.13312965 -12.7269223 13.9456275 -14.875 11.3125 C-15.5625 8.375 -15.5625 8.375 -14.875 5.3125 C-10.12906737 0.21639652 -6.79182101 -0.37412573 0 0 Z " fill="#F6F6F4" transform="translate(806.875,580.6875)"/>
<path d="M0 0 C2.875 1.75 2.875 1.75 5 5 C5.22038266 8.10654793 5.12550322 11.05606371 4.8828125 14.16015625 C5.01839738 17.44582985 5.8021093 18.62559476 8 21 C7.01 21 6.02 21 5 21 C5 21.33 5 21.66 5 22 C5 22.99 5 23.98 5 25 C0.125 20.25 0.125 20.25 -1 18 C-2.27875 17.71125 -3.5575 17.4225 -4.875 17.125 C-7.58418493 16.48897271 -8.83799911 16.13668825 -11 14.3125 C-12.47538063 10.90068228 -12.58058559 8.67704207 -12 5 C-8.35740398 0.92376159 -5.51295534 -1.17296922 0 0 Z " fill="#E7F3F7" transform="translate(363,450)"/>
<path d="M0 0 C9.9 0 19.8 0 30 0 C27.84269784 5.3932554 26.82517785 6.24275551 22 9 C16.51302475 10.82899175 11.87320504 10.68976898 6.6875 8.25 C3.71115075 6.60102065 1.63778834 5.07085313 0 2 C0 1.34 0 0.68 0 0 Z " fill="#3283B2" transform="translate(386,456)"/>
<path d="M0 0 C0.69323364 -0.00087616 1.38646729 -0.00175232 2.10070801 -0.00265503 C4.37974911 0.00150734 6.65580306 0.04808439 8.93432617 0.09521484 C10.51900118 0.10641206 12.10369703 0.11494977 13.68840027 0.12094116 C17.84986187 0.14379889 22.01005751 0.20269343 26.17102051 0.26916504 C30.42072423 0.33065495 34.67063349 0.35797035 38.9206543 0.38818359 C47.25261407 0.45244172 55.58354681 0.55478165 63.91479492 0.68115234 C63.91479492 1.01115234 63.91479492 1.34115234 63.91479492 1.68115234 C62.71282471 1.7062085 61.51085449 1.73126465 60.27246094 1.75708008 C58.57120767 1.7929682 56.86995442 1.82885693 55.16870117 1.86474609 C53.80425621 1.89305511 53.80425621 1.89305511 52.4122467 1.92193604 C47.40072796 2.02776469 42.38987751 2.14537554 37.37915039 2.28393555 C20.11333296 2.75172479 20.11333296 2.75172479 11.91870117 2.47802734 C-1.02985695 2.13978373 -1.02985695 2.13978373 -11.75366211 8.7565918 C-14.45034236 11.58570762 -16.79842142 14.51074566 -19.08520508 17.68115234 C-18.14161133 18.839375 -18.14161133 18.839375 -17.17895508 20.02099609 C-15.08520508 22.68115234 -15.08520508 22.68115234 -13.58520508 25.24365234 C-12.01800563 27.79035145 -10.26672473 29.65008232 -8.08520508 31.68115234 C-8.41520508 32.34115234 -8.74520508 33.00115234 -9.08520508 33.68115234 C-13.70520508 29.06115234 -18.32520508 24.44115234 -23.08520508 19.68115234 C-21.20600122 15.92274463 -19.7387483 14.1475719 -16.77270508 11.30615234 C-14.17531678 8.81019007 -11.97109193 6.5203893 -9.87886047 3.57284546 C-6.946681 0.05289661 -4.58607985 -0.04887474 0 0 Z " fill="#54C1DA" transform="translate(196.085205078125,455.31884765625)"/>
<path d="M0 0 C2.375 1.375 2.375 1.375 4 3 C4 3.66 4 4.32 4 5 C3.34 5 2.68 5 2 5 C1.67 5.66 1.34 6.32 1 7 C0.67 6.67 0.34 6.34 0 6 C-1.99958364 5.95919217 -4.00045254 5.95745644 -6 6 C-6.33 7.65 -6.66 9.3 -7 11 C-6.175 11.61875 -5.35 12.2375 -4.5 12.875 C-3.675 13.57625 -2.85 14.2775 -2 15 C-2 15.66 -2 16.32 -2 17 C-8.38197767 16.51834131 -8.38197767 16.51834131 -10.9375 14.375 C-12.47605885 10.93586846 -12.58839926 8.72652863 -12 5 C-8.30718017 0.86755877 -5.57163642 -0.96898025 0 0 Z " fill="#F2F8FA" transform="translate(363,450)"/>
<path d="M0 0 C3.20782569 3.20782569 3.40303355 4.0663535 3.45898438 8.40039062 C3.44834961 9.40875977 3.44834961 9.40875977 3.4375 10.4375 C3.45683594 11.75621094 3.47617187 13.07492187 3.49609375 14.43359375 C3 18 3 18 1.1328125 20.4453125 C-1 22 -1 22 -3.5625 22.4375 C-6 22 -6 22 -7.8125 20.8125 C-9.40199375 18.3864306 -9.36487512 16.84602594 -9 14 C-7 12 -7 12 -3.375 11.875 C-1.704375 11.936875 -1.704375 11.936875 0 12 C0 8.04 0 4.08 0 0 Z " fill="#EBF4F8" transform="translate(440,456)"/>
<path d="M0 0 C1.875 1.125 1.875 1.125 3 3 C3.39365568 6.14924548 3.52854531 8.11909116 1.875 10.875 C-0.88090884 12.52854531 -2.85075452 12.39365568 -6 12 C-7.875 10.875 -7.875 10.875 -9 9 C-9.39365568 5.85075452 -9.52854531 3.88090884 -7.875 1.125 C-5.11909116 -0.52854531 -3.14924548 -0.39365568 0 0 Z " fill="#40A5CD" transform="translate(316,538)"/>
<path d="M0 0 C2.875 -0.125 2.875 -0.125 6 0 C8 2 8 2 8.3125 5.5 C8.1578125 7.2325 8.1578125 7.2325 8 9 C5 11 5 11 2.4375 10.75 C0 10 0 10 -2 8 C-1.69347955 5.0574037 -1.32728846 2.65457692 0 0 Z " fill="#F2FAFC" transform="translate(191,468)"/>
<path d="M0 0 C0.66 0.33 1.32 0.66 2 1 C1.67 1.99 1.34 2.98 1 4 C1 4.99 1 5.98 1 7 C-4.54165256 10.77304004 -8.34454208 11.54330269 -15 11 C-15 9.33333333 -15 7.66666667 -15 6 C-14.12988281 5.85304688 -14.12988281 5.85304688 -13.2421875 5.703125 C-7.90353568 4.68120485 -4.31114768 3.31626744 0 0 Z " fill="#ECF6F9" transform="translate(414,460)"/>
<path d="M0 0 C3 0.125 3 0.125 4 1.125 C3.71269945 3.46444736 3.38063221 5.7989143 3 8.125 C0.125 8.25 0.125 8.25 -3 8.125 C-3.66 7.465 -4.32 6.805 -5 6.125 C-4.27477017 0.17811542 -4.27477017 0.17811542 0 0 Z " fill="#4CA0CA" transform="translate(360,454.875)"/>
<path d="M0 0 C-1.09577229 3.28731688 -1.77804601 3.88003756 -4.375 6 C-9.90657712 10.67669702 -14.9246533 15.84068616 -20 21 C-20.66 20.67 -21.32 20.34 -22 20 C-4.9787234 0 -4.9787234 0 0 0 Z " fill="#37B7D0" transform="translate(249,385)"/>
<path d="M0 0 C1.98 0 3.96 0 6 0 C6 1.32 6 2.64 6 4 C6.99 3.67 7.98 3.34 9 3 C9.9590625 3.2475 9.9590625 3.2475 10.9375 3.5 C13.31772734 4.07702481 14.69706679 3.74022853 17 3 C15.3703437 4.95143557 14.43023084 5.90331891 11.9140625 6.46875 C7.40634895 6.53028875 5.59664368 6.47487966 1.9375 3.5625 C0 1 0 1 0 0 Z " fill="#F3C344" transform="translate(261,461)"/>
<path d="M0 0 C9.57 0 19.14 0 29 0 C29 0.33 29 0.66 29 1 C20.42 1.33 11.84 1.66 3 2 C3.99 3.485 3.99 3.485 5 5 C4.01 5 3.02 5 2 5 C1.34 3.35 0.68 1.7 0 0 Z " fill="#5B9DBF" transform="translate(386,456)"/>
<path d="M0 0 C0.66 0.66 1.32 1.32 2 2 C1.0919838 3.13199353 0.17316174 4.25532363 -0.75 5.375 C-1.26046875 6.00148438 -1.7709375 6.62796875 -2.296875 7.2734375 C-4.08199481 9.08312318 -5.67949644 10.00117455 -8 11 C-8 8 -8 8 -6.25 5.95703125 C-5.5075 5.24933594 -4.765 4.54164063 -4 3.8125 C-2.88625 2.73935547 -2.88625 2.73935547 -1.75 1.64453125 C-1.1725 1.10183594 -0.595 0.55914063 0 0 Z " fill="#465154" transform="translate(654,545)"/>
<path d="M0 0 C0.66 0.33 1.32 0.66 2 1 C1.27683594 1.68835938 1.27683594 1.68835938 0.5390625 2.390625 C-0.09257813 3.00421875 -0.72421875 3.6178125 -1.375 4.25 C-2.00148438 4.85328125 -2.62796875 5.4565625 -3.2734375 6.078125 C-4.97310161 7.9700588 -5.98459866 9.68201309 -7 12 C-7.74609375 10.265625 -7.74609375 10.265625 -8 8 C-6.34765625 5.859375 -6.34765625 5.859375 -4.0625 3.75 C-3.31097656 3.04359375 -2.55945313 2.3371875 -1.78515625 1.609375 C-1.19605469 1.07828125 -0.60695313 0.5471875 0 0 Z " fill="#E1E1E1" transform="translate(665,560)"/>
<path d="M0 0 C0.66 0.33 1.32 0.66 2 1 C-0.31 3.97 -2.62 6.94 -5 10 C-5.33 9.34 -5.66 8.68 -6 8 C-2.58823529 1.29411765 -2.58823529 1.29411765 0 0 Z " fill="#3774B3" transform="translate(341,624)"/>
<path d="M0 0 C0.33 0.99 0.66 1.98 1 3 C-0.98 4.32 -2.96 5.64 -5 7 C-5.1875 4.625 -5.1875 4.625 -5 2 C-2 0 -2 0 0 0 Z " fill="#4497C3" transform="translate(357,447)"/>
<path d="M0 0 C0.66 0.33 1.32 0.66 2 1 C1.34 2.98 0.68 4.96 0 7 C-0.66 7 -1.32 7 -2 7 C-2.125 4.625 -2.125 4.625 -2 2 C-1.34 1.34 -0.68 0.68 0 0 Z " fill="#368EB9" transform="translate(351,450)"/>
</svg>
